<svg width="192" height="192" viewBox="0 0 192 192" fill="none" xmlns="http://www.w3.org/2000/svg">
  <rect width="192" height="192" rx="32" fill="url(#gradient)"/>
  <path d="M48 96C48 69.49 69.49 48 96 48C122.51 48 144 69.49 144 96C144 122.51 122.51 144 96 144C69.49 144 48 122.51 48 96Z" stroke="#0f172a" stroke-width="4" fill="none"/>
  <path d="M72 96C72 82.745 82.745 72 96 72C109.255 72 120 82.745 120 96C120 109.255 109.255 120 96 120C82.745 120 72 109.255 72 96Z" fill="#0f172a"/>
  <text x="96" y="105" font-family="Arial, sans-serif" font-size="48" font-weight="bold" text-anchor="middle" fill="#F5BE37">E</text>
  <defs>
    <linearGradient id="gradient" x1="0%" y1="0%" x2="100%" y2="100%">
      <stop offset="0%" style="stop-color:#F5BE37;stop-opacity:1" />
      <stop offset="100%" style="stop-color:#FBBF24;stop-opacity:1" />
    </linearGradient>
  </defs>
</svg>
